# xmcd CD database file
#
# Track frame offsets:
#	150
#	16036
#	30131
#	41976
#	53738
#	66979
#	78274
#	93247
#	106443
#	119671
#	129830
#	144830
#
# Disc length: 2129 seconds
#
# Revision: 0
# Processed by: cddbd v1.5.2PL0 Copyright (c) Steve Scherf et al.
# Submitted via: CDex 1.51
#
DISCID=91084f0c
DTITLE=Coral Adlam - Right Where I Am
DYEAR=2007
DGENRE=Country
TTITLE0=Coral Adlam -You've Got Me Right Where You Want Me
TTITLE1=Coral Adlam - Silver Threads And Golden Needles
TTITLE2=Coral Adlam - Tammy
TTITLE3=Coral Adlam - River Road
TTITLE4=Coral Adlam - Help Me Make It Through The Night
TTITLE5=Coral Adlam - Take A Message To Mary
TTITLE6=Coral Adlam - Hobo's Meditation
TTITLE7=Coral Adlam - Blue Kentucky Girl
TTITLE8=Coral Adlam - Lace Covered Window
TTITLE9=Coral Adlam - Why Don't You Love Me
TTITLE10=Coral Adlam - 'till A Tear Becomes A Rose
TTITLE11=Coral Adlam - I Only See You
EXTD=YEAR: 2007
EXTT0=
EXTT1=
EXTT2=
EXTT3=
EXTT4=
EXTT5=
EXTT6=
EXTT7=
EXTT8=
EXTT9=
EXTT10=
EXTT11=
PLAYORDER=
